<mxfile host="drawio-plugin" modified="2023-03-05T11:51:14.670Z" agent="5.0 (Windows NT 6.2; Win64; x64) AppleWebKit/537.36 (KHTML, like Gecko) Chrome/98.0.4758.102 Safari/537.36" etag="tRHxiuc0HbwhzAu_eDlZ" version="20.5.3" type="embed"><diagram id="m9rwbizeNmLvMo32rhII" name="Page-1"><mxGraphModel dx="941" dy="567" grid="1" gridSize="10" guides="1" tooltips="1" connect="1" arrows="1" fold="0" page="1" pageScale="1" pageWidth="850" pageHeight="1100" math="0" shadow="0"><root><mxCell id="0"/><mxCell id="1" parent="0"/><mxCell id="2" value="&lt;font style=&quot;font-size: 20px;&quot;&gt;client&lt;/font&gt;" style="rounded=0;whiteSpace=wrap;html=1;strokeWidth=2;strokeColor=default;" parent="1" vertex="1"><mxGeometry x="30" y="120" width="120" height="300" as="geometry"/></mxCell><mxCell id="8" value="&lt;font style=&quot;font-size: 20px;&quot;&gt;func (s *service) rpcmethod(arg, any, rly pointer) (error)&lt;/font&gt;" style="rounded=1;whiteSpace=wrap;html=1;fillColor=#dae8fc;strokeColor=none;" parent="1" vertex="1"><mxGeometry x="120" y="30" width="600" height="30" as="geometry"/></mxCell><mxCell id="10" value="" style="group;fillColor=none;strokeColor=default;strokeWidth=2;" parent="1" vertex="1" connectable="0"><mxGeometry x="450" y="105" width="340" height="330" as="geometry"/></mxCell><mxCell id="3" value="&lt;font style=&quot;font-size: 20px;&quot;&gt;server&lt;/font&gt;" style="rounded=0;html=1;fontSize=14;" parent="10" vertex="1"><mxGeometry width="340" height="330" as="geometry"/></mxCell><mxCell id="4" value="servicesRegister" style="swimlane;fontStyle=0;childLayout=stackLayout;horizontal=1;startSize=30;horizontalStack=0;resizeParent=1;resizeParentMax=0;resizeLast=0;collapsible=1;marginBottom=0;html=1;fontSize=14;" parent="10" vertex="1"><mxGeometry x="222.30848484848485" y="30" width="107.38848484848485" height="125.38" as="geometry"/></mxCell><mxCell id="5" value="service_1&lt;br style=&quot;font-size: 14px;&quot;&gt;&lt;span style=&quot;white-space: pre; font-size: 14px;&quot;&gt;&#9;&lt;/span&gt;method_1&lt;br style=&quot;font-size: 14px;&quot;&gt;&lt;span style=&quot;white-space: pre; font-size: 14px;&quot;&gt;&#9;&lt;/span&gt;method_2" style="text;strokeColor=none;fillColor=none;align=left;verticalAlign=middle;spacingLeft=4;spacingRight=4;overflow=hidden;points=[[0,0.5],[1,0.5]];portConstraint=eastwest;rotatable=0;html=1;fontSize=14;" parent="4" vertex="1"><mxGeometry y="30" width="107.38848484848485" height="70" as="geometry"/></mxCell><mxCell id="6" value="service_2" style="text;strokeColor=none;fillColor=none;align=left;verticalAlign=middle;spacingLeft=4;spacingRight=4;overflow=hidden;points=[[0,0.5],[1,0.5]];portConstraint=eastwest;rotatable=0;html=1;fontSize=14;" parent="4" vertex="1"><mxGeometry y="100" width="107.38848484848485" height="25.38" as="geometry"/></mxCell><mxCell id="17" value="" style="endArrow=classic;html=1;rounded=0;fontSize=14;exitX=-0.008;exitY=0.28;exitDx=0;exitDy=0;exitPerimeter=0;entryX=0;entryY=0.252;entryDx=0;entryDy=0;entryPerimeter=0;fillColor=#f8cecc;strokeColor=#b85450;dashed=1;strokeWidth=2;" parent="10" source="3" target="5" edge="1"><mxGeometry width="50" height="50" relative="1" as="geometry"><mxPoint x="-65.38461538461536" y="355.38461538461536" as="sourcePoint"/><mxPoint y="270.7692307692308" as="targetPoint"/><Array as="points"/></mxGeometry></mxCell><mxCell id="19" value="&lt;font style=&quot;font-size: 13px;&quot;&gt;service_method&lt;/font&gt;" style="edgeLabel;html=1;align=center;verticalAlign=middle;resizable=0;points=[];fontSize=13;" parent="17" vertex="1" connectable="0"><mxGeometry x="-0.058" y="2" relative="1" as="geometry"><mxPoint x="11" y="-15" as="offset"/></mxGeometry></mxCell><mxCell id="21" value="reflect caller" style="rounded=1;html=1;fontSize=14;" parent="10" vertex="1"><mxGeometry x="104.61538461538461" y="250" width="130.76923076923072" height="60" as="geometry"/></mxCell><mxCell id="23" value="" style="endArrow=classic;html=1;rounded=0;dashed=1;fontSize=14;exitX=0.75;exitY=1.168;exitDx=0;exitDy=0;exitPerimeter=0;entryX=1;entryY=0;entryDx=0;entryDy=0;fillColor=#ffe6cc;strokeColor=#d79b00;strokeWidth=2;" parent="10" source="6" target="21" edge="1"><mxGeometry width="50" height="50" relative="1" as="geometry"><mxPoint x="-65.38461538461536" y="210" as="sourcePoint"/><mxPoint y="160" as="targetPoint"/><Array as="points"/></mxGeometry></mxCell><mxCell id="24" value="method" style="edgeLabel;html=1;align=center;verticalAlign=middle;resizable=0;points=[];fontSize=13;" parent="23" vertex="1" connectable="0"><mxGeometry x="-0.4811" y="-1" relative="1" as="geometry"><mxPoint x="-4" y="5" as="offset"/></mxGeometry></mxCell><mxCell id="25" value="" style="endArrow=classic;html=1;dashed=1;fontSize=14;entryX=0.75;entryY=0;entryDx=0;entryDy=0;exitX=0.002;exitY=0.277;exitDx=0;exitDy=0;exitPerimeter=0;fillColor=#ffe6cc;strokeColor=#d79b00;rounded=0;strokeWidth=2;" parent="10" source="3" target="21" edge="1"><mxGeometry width="50" height="50" relative="1" as="geometry"><mxPoint x="-65.38461538461536" y="210" as="sourcePoint"/><mxPoint y="160" as="targetPoint"/></mxGeometry></mxCell><mxCell id="26" value="arg" style="edgeLabel;html=1;align=center;verticalAlign=middle;resizable=0;points=[];fontSize=14;" parent="25" vertex="1" connectable="0"><mxGeometry x="-0.2484" y="1" relative="1" as="geometry"><mxPoint as="offset"/></mxGeometry></mxCell><mxCell id="38" value="args" style="edgeLabel;html=1;align=center;verticalAlign=middle;resizable=0;points=[];fontSize=13;" parent="25" vertex="1" connectable="0"><mxGeometry x="-0.2484" y="1" relative="1" as="geometry"><mxPoint as="offset"/></mxGeometry></mxCell><mxCell id="27" value="" style="endArrow=classic;html=1;rounded=0;dashed=1;fontSize=14;exitX=0.18;exitY=-0.025;exitDx=0;exitDy=0;exitPerimeter=0;fillColor=#d5e8d4;strokeColor=#82b366;strokeWidth=2;entryX=0;entryY=0.5;entryDx=0;entryDy=0;" parent="10" source="21" target="3" edge="1"><mxGeometry width="50" height="50" relative="1" as="geometry"><mxPoint x="-117.69230769230768" y="220" as="sourcePoint"/><mxPoint x="-52.30769230769231" y="160" as="targetPoint"/></mxGeometry></mxCell><mxCell id="28" value="err、rly" style="edgeLabel;html=1;align=center;verticalAlign=middle;resizable=0;points=[];fontSize=14;" parent="27" vertex="1" connectable="0"><mxGeometry x="-0.3638" y="-3" relative="1" as="geometry"><mxPoint as="offset"/></mxGeometry></mxCell><mxCell id="11" value="" style="endArrow=classic;html=1;rounded=0;fontSize=14;entryX=0;entryY=0.133;entryDx=0;entryDy=0;entryPerimeter=0;shape=flexArrow;fillColor=#ffe6cc;strokeColor=#d79b00;exitX=1;exitY=0.127;exitDx=0;exitDy=0;exitPerimeter=0;" parent="1" source="2" target="3" edge="1"><mxGeometry width="50" height="50" relative="1" as="geometry"><mxPoint x="150" y="140" as="sourcePoint"/><mxPoint x="350" y="160" as="targetPoint"/></mxGeometry></mxCell><mxCell id="13" value="" style="endArrow=classic;html=1;rounded=0;exitX=1;exitY=0.5;exitDx=0;exitDy=0;fontSize=14;fillColor=#d5e8d4;strokeColor=#82b366;shape=flexArrow;strokeWidth=1;width=8;endSize=5.78;entryX=0.008;entryY=0.277;entryDx=0;entryDy=0;entryPerimeter=0;" parent="1" source="2" target="3" edge="1"><mxGeometry width="50" height="50" relative="1" as="geometry"><mxPoint x="400" y="320" as="sourcePoint"/><mxPoint x="490" y="190" as="targetPoint"/></mxGeometry></mxCell><mxCell id="15" value="" style="endArrow=classic;html=1;rounded=0;entryX=0.958;entryY=0.887;entryDx=0;entryDy=0;entryPerimeter=0;fontSize=14;shape=flexArrow;fillColor=#d5e8d4;strokeColor=#82b366;exitX=0;exitY=0.5;exitDx=0;exitDy=0;" parent="1" source="3" target="2" edge="1"><mxGeometry width="50" height="50" relative="1" as="geometry"><mxPoint x="450" y="260" as="sourcePoint"/><mxPoint x="140" y="262.25" as="targetPoint"/></mxGeometry></mxCell><mxCell id="70" value="&lt;font style=&quot;font-size: 12px;&quot;&gt;&lt;b&gt;Option &lt;/b&gt;(magicNum、codeType)&lt;/font&gt;" style="shape=ext;margin=3;double=1;whiteSpace=wrap;html=1;align=center;fontSize=13;fillColor=#f5f5f5;strokeColor=#666666;fontColor=#333333;" parent="1" vertex="1"><mxGeometry x="180" y="90" width="130" height="50" as="geometry"/></mxCell><mxCell id="71" value="&lt;font style=&quot;font-size: 12px;&quot;&gt;&lt;b&gt;Header &lt;/b&gt;(seq、serviceMethod)&lt;/font&gt;" style="shape=ext;margin=3;double=1;whiteSpace=wrap;html=1;align=center;fontSize=13;fillColor=none;" parent="1" vertex="1"><mxGeometry x="160" y="200" width="130" height="40" as="geometry"/></mxCell><mxCell id="72" value="&lt;b&gt;Body &lt;/b&gt;(args)" style="shape=ext;margin=3;double=1;whiteSpace=wrap;html=1;align=center;fontSize=13;fillColor=none;" parent="1" vertex="1"><mxGeometry x="300" y="190" width="90" height="26" as="geometry"/></mxCell><mxCell id="74" value="&lt;b&gt;Header &lt;/b&gt;(seq、serviceMethod、err)" style="shape=ext;margin=3;double=1;whiteSpace=wrap;html=1;align=center;fontSize=13;fillColor=#f9f7ed;strokeColor=#36393d;" parent="1" vertex="1"><mxGeometry x="170" y="290" width="130" height="40" as="geometry"/></mxCell><mxCell id="75" value="&lt;b&gt;Body &lt;/b&gt;(rly)" style="shape=ext;margin=3;double=1;whiteSpace=wrap;html=1;align=center;fontSize=13;fillColor=#f9f7ed;strokeColor=#36393d;" parent="1" vertex="1"><mxGeometry x="310" y="280" width="80" height="28" as="geometry"/></mxCell><mxCell id="104" value="" style="rounded=1;whiteSpace=wrap;html=1;shadow=0;glass=0;labelBackgroundColor=none;labelBorderColor=none;sketch=0;strokeColor=default;strokeWidth=2;fontSize=12;fontColor=default;fillColor=none;container=0;" parent="1" vertex="1"><mxGeometry x="60" y="1020" width="170" as="geometry"/></mxCell><mxCell id="113" value="" style="group" parent="1" vertex="1" connectable="0"><mxGeometry x="540" y="520" width="190" height="520" as="geometry"/></mxCell><mxCell id="108" value="" style="rounded=1;whiteSpace=wrap;html=1;shadow=0;glass=0;labelBackgroundColor=none;labelBorderColor=none;sketch=0;strokeColor=default;strokeWidth=2;fontSize=12;fontColor=default;fillColor=none;container=0;" parent="113" vertex="1"><mxGeometry width="190" height="520" as="geometry"/></mxCell><mxCell id="94" value="Server" style="swimlane;childLayout=stackLayout;horizontal=1;startSize=30;horizontalStack=0;rounded=1;fontSize=14;fontStyle=0;strokeWidth=2;resizeParent=0;resizeLast=1;shadow=0;dashed=0;align=center;glass=0;labelBackgroundColor=none;labelBorderColor=none;sketch=0;strokeColor=#82b366;fillColor=#d5e8d4;html=1;container=0;" parent="113" vertex="1"><mxGeometry x="19.166666666666686" y="360" width="124.58333333333334" height="110" as="geometry"/></mxCell><mxCell id="96" value="Service" style="swimlane;childLayout=stackLayout;horizontal=1;startSize=30;horizontalStack=0;rounded=1;fontSize=14;fontStyle=0;strokeWidth=2;resizeParent=0;resizeLast=1;shadow=0;dashed=0;align=center;glass=0;labelBackgroundColor=none;labelBorderColor=none;sketch=0;strokeColor=#82b366;fillColor=#d5e8d4;html=1;container=0;" parent="113" vertex="1"><mxGeometry x="19.166666666666686" y="210" width="124.58333333333334" height="120" as="geometry"/></mxCell><mxCell id="98" value="Method" style="swimlane;childLayout=stackLayout;horizontal=1;startSize=30;horizontalStack=0;rounded=1;fontSize=14;fontStyle=0;strokeWidth=2;resizeParent=0;resizeLast=1;shadow=0;dashed=0;align=center;glass=0;labelBackgroundColor=none;labelBorderColor=none;sketch=0;strokeColor=#82b366;fillColor=#d5e8d4;html=1;container=0;" parent="113" vertex="1"><mxGeometry x="19.16666666666667" y="90" width="124.58333333333334" height="100" as="geometry"/></mxCell><mxCell id="109" value="服务端实体" style="text;html=1;strokeColor=none;fillColor=none;align=center;verticalAlign=middle;whiteSpace=wrap;rounded=0;shadow=0;glass=0;labelBackgroundColor=none;labelBorderColor=none;sketch=0;strokeWidth=2;fontSize=12;fontColor=default;container=0;" parent="113" vertex="1"><mxGeometry x="67.08333333333331" y="20" width="67.08333333333333" height="30" as="geometry"/></mxCell><mxCell id="95" value="+coder&lt;br&gt;+mutex&lt;br&gt;+waitgroup&lt;br&gt;+serviceMap&lt;br&gt;+isAvailable" style="align=left;strokeColor=none;fillColor=none;spacingLeft=4;fontSize=12;verticalAlign=top;resizable=0;rotatable=0;part=1;rounded=1;shadow=0;glass=0;labelBackgroundColor=none;labelBorderColor=none;sketch=0;strokeWidth=2;fontColor=default;html=1;container=0;" parent="113" vertex="1"><mxGeometry x="19.166666666666686" y="390" width="124.58333333333334" height="80" as="geometry"/></mxCell><mxCell id="97" value="+name&lt;br&gt;+serviceType&lt;br&gt;+serviceValue (in(0))&lt;br&gt;+methodMap" style="align=left;strokeColor=none;fillColor=none;spacingLeft=4;fontSize=12;verticalAlign=top;resizable=0;rotatable=0;part=1;rounded=1;shadow=0;glass=0;labelBackgroundColor=none;labelBorderColor=none;sketch=0;strokeWidth=2;fontColor=default;html=1;container=0;" parent="113" vertex="1"><mxGeometry x="19.166666666666686" y="240" width="124.58333333333334" height="90" as="geometry"/></mxCell><mxCell id="99" value="+method (caller)&lt;br&gt;+argt (in(1)&lt;br&gt;+rlyt (in(2))" style="align=left;strokeColor=none;fillColor=none;spacingLeft=4;fontSize=12;verticalAlign=top;resizable=0;rotatable=0;part=1;rounded=1;shadow=0;glass=0;labelBackgroundColor=none;labelBorderColor=none;sketch=0;strokeWidth=2;fontColor=default;html=1;container=0;" parent="113" vertex="1"><mxGeometry x="19.166666666666686" y="120" width="124.58333333333334" height="70" as="geometry"/></mxCell><mxCell id="114" value="" style="group" parent="1" vertex="1" connectable="0"><mxGeometry x="290" y="540" width="185" height="390" as="geometry"/></mxCell><mxCell id="105" value="" style="rounded=1;whiteSpace=wrap;html=1;shadow=0;glass=0;labelBackgroundColor=none;labelBorderColor=none;sketch=0;strokeColor=default;strokeWidth=2;fontSize=12;fontColor=default;fillColor=none;container=0;arcSize=0;" parent="114" vertex="1"><mxGeometry width="170" height="390" as="geometry"/></mxCell><mxCell id="63" value="Call" style="swimlane;childLayout=stackLayout;horizontal=1;startSize=30;horizontalStack=0;rounded=1;fontSize=14;fontStyle=0;strokeWidth=2;resizeParent=0;resizeLast=1;shadow=0;dashed=0;align=center;fillColor=#ffe6cc;strokeColor=#d79b00;container=0;" parent="114" vertex="1"><mxGeometry x="20" y="65" width="120" height="130" as="geometry"/></mxCell><mxCell id="64" value="+seq&#10;+serviceMethod&#10;+err&#10;+args&#10;+rly&#10;+doneChan" style="align=left;strokeColor=none;fillColor=none;spacingLeft=4;fontSize=12;verticalAlign=top;resizable=0;rotatable=0;part=1;container=0;" parent="63" vertex="1"><mxGeometry y="30" width="120" height="100" as="geometry"/></mxCell><mxCell id="91" value="Client" style="swimlane;childLayout=stackLayout;horizontal=1;startSize=30;horizontalStack=0;rounded=1;fontSize=14;fontStyle=0;strokeWidth=2;resizeParent=0;resizeLast=1;shadow=0;dashed=0;align=center;glass=0;labelBackgroundColor=none;labelBorderColor=none;sketch=0;strokeColor=#d79b00;fillColor=#ffe6cc;html=1;container=0;" parent="114" vertex="1"><mxGeometry x="22.5" y="240" width="125" height="110" as="geometry"/></mxCell><mxCell id="106" value="客户端实体" style="text;html=1;strokeColor=none;fillColor=none;align=center;verticalAlign=middle;whiteSpace=wrap;rounded=0;shadow=0;glass=0;labelBackgroundColor=none;labelBorderColor=none;sketch=0;strokeWidth=2;fontSize=12;fontColor=default;container=0;" parent="114" vertex="1"><mxGeometry x="60" y="5" width="70" height="40" as="geometry"/></mxCell><mxCell id="92" value="+coder&lt;br&gt;+mutex&lt;br&gt;+callList&lt;br&gt;+isAvailable" style="align=left;strokeColor=none;fillColor=none;spacingLeft=4;fontSize=12;verticalAlign=top;resizable=0;rotatable=0;part=1;rounded=1;shadow=0;glass=0;labelBackgroundColor=none;labelBorderColor=none;sketch=0;strokeWidth=2;fontColor=default;html=1;container=0;" parent="114" vertex="1"><mxGeometry x="25" y="275" width="160" height="80" as="geometry"/></mxCell><mxCell id="116" value="" style="group" parent="1" vertex="1" connectable="0"><mxGeometry x="40" y="540" width="170" height="360" as="geometry"/></mxCell><mxCell id="110" value="" style="rounded=1;whiteSpace=wrap;html=1;shadow=0;glass=0;labelBackgroundColor=none;labelBorderColor=none;sketch=0;strokeColor=default;strokeWidth=2;fontSize=12;fontColor=default;fillColor=none;" parent="116" vertex="1"><mxGeometry width="170" height="360" as="geometry"/></mxCell><mxCell id="59" value="Option" style="swimlane;childLayout=stackLayout;horizontal=1;startSize=30;horizontalStack=0;rounded=1;fontSize=14;fontStyle=0;strokeWidth=2;resizeParent=0;resizeLast=1;shadow=0;dashed=0;align=center;fillColor=#dae8fc;strokeColor=#6c8ebf;" parent="116" vertex="1"><mxGeometry x="20" y="60" width="110" height="80" as="geometry"/></mxCell><mxCell id="60" value="+magicNum&#10;+codeType" style="align=left;strokeColor=none;fillColor=none;spacingLeft=4;fontSize=12;verticalAlign=top;resizable=0;rotatable=0;part=1;" parent="59" vertex="1"><mxGeometry y="30" width="110" height="50" as="geometry"/></mxCell><mxCell id="61" value="Header" style="swimlane;childLayout=stackLayout;horizontal=1;startSize=30;horizontalStack=0;rounded=1;fontSize=14;fontStyle=0;strokeWidth=2;resizeParent=0;resizeLast=1;shadow=0;dashed=0;align=center;fillColor=#dae8fc;strokeColor=#6c8ebf;" parent="116" vertex="1"><mxGeometry x="20" y="160" width="110" height="90" as="geometry"/></mxCell><mxCell id="62" value="+seq&#10;+serviceMethod&#10;+err" style="align=left;strokeColor=none;fillColor=none;spacingLeft=4;fontSize=12;verticalAlign=top;resizable=0;rotatable=0;part=1;" parent="61" vertex="1"><mxGeometry y="30" width="110" height="60" as="geometry"/></mxCell><mxCell id="65" value="Body" style="swimlane;childLayout=stackLayout;horizontal=1;startSize=30;horizontalStack=0;rounded=1;fontSize=14;fontStyle=0;strokeWidth=2;resizeParent=0;resizeLast=1;shadow=0;dashed=0;align=center;fillColor=#dae8fc;strokeColor=#6c8ebf;" parent="116" vertex="1"><mxGeometry x="20" y="270" width="120" height="70" as="geometry"/></mxCell><mxCell id="66" value="+args&#10;+rly" style="align=left;strokeColor=none;fillColor=none;spacingLeft=4;fontSize=12;verticalAlign=top;resizable=0;rotatable=0;part=1;" parent="65" vertex="1"><mxGeometry y="30" width="120" height="40" as="geometry"/></mxCell><mxCell id="115" value="编码实体" style="text;html=1;strokeColor=none;fillColor=none;align=center;verticalAlign=middle;whiteSpace=wrap;rounded=0;shadow=0;glass=0;labelBackgroundColor=none;labelBorderColor=none;sketch=0;strokeWidth=2;fontSize=12;fontColor=default;" parent="116" vertex="1"><mxGeometry x="40" y="10" width="60" height="30" as="geometry"/></mxCell></root></mxGraphModel></diagram></mxfile>